<?xml version="1.0" standalone="no"?>
<!DOCTYPE svg PUBLIC "-//W3C//DTD SVG 20010904//EN"
 "http://www.w3.org/TR/2001/REC-SVG-20010904/DTD/svg10.dtd">
<svg version="1.0" xmlns="http://www.w3.org/2000/svg"
 width="150.000000pt" height="150.000000pt" viewBox="0 0 106.000000 112.000000"
 preserveAspectRatio="xMidYMid meet">

<g transform="translate(6.000000,107.000000) scale(0.090000,-0.090000)"
fill="#000000" stroke="none">
<path d="M390 1104 c-82 -10 -219 -46 -270 -72 -31 -16 -64 -42 -77 -61 l-23
-34 0 -458 c0 -386 2 -459 14 -459 8 0 17 11 20 25 9 35 64 73 145 100 200 68
563 56 719 -24 37 -19 85 -66 94 -92 2 -7 10 -9 16 -5 9 5 12 121 12 461 l0
454 -31 35 c-67 77 -229 125 -444 130 -77 3 -156 2 -175 0z"/>
</g>
</svg>
