<?xml version="1.0" standalone="no"?>
<!DOCTYPE svg PUBLIC "-//W3C//DTD SVG 20010904//EN"
 "http://www.w3.org/TR/2001/REC-SVG-20010904/DTD/svg10.dtd">
<svg version="1.0" xmlns="http://www.w3.org/2000/svg"
 width="150.000000pt" height="150.000000pt" viewBox="0 0 123.000000 113.000000"
 preserveAspectRatio="xMidYMid meet">
<g transform="translate(5.000000,110.000000) scale(0.090000,-0.090000)"
fill="#000000" stroke="none">
<path d="M232 1064 c-67 -33 -128 -103 -147 -167 -63 -214 62 -479 340 -718
91 -78 196 -159 207 -159 16 0 200 152 287 238 181 180 271 353 271 521 0 130
-43 214 -139 272 -128 78 -290 31 -382 -112 -18 -27 -35 -49 -39 -49 -4 0 -21
22 -39 49 -86 134 -237 186 -359 125z"/>
</g>
</svg>
