<?xml version="1.0" standalone="no"?>
<!DOCTYPE svg PUBLIC "-//W3C//DTD SVG 20010904//EN"
 "http://www.w3.org/TR/2001/REC-SVG-20010904/DTD/svg10.dtd">
<svg version="1.0" xmlns="http://www.w3.org/2000/svg"
 width="150.000000pt" height="150.000000pt" viewBox="0 0 121.000000 115.000000"
 preserveAspectRatio="xMidYMid meet">
<metadata>
Created by potrace 1.13, written by Peter Selinger 2001-2015
</metadata>
<g transform="translate(5.000000,110.000000) scale(0.090000,-0.090000)"
fill="#000000" stroke="none">
<path d="M537 1110 c-59 -15 -135 -58 -184 -103 -180 -165 -311 -527 -316
-872 l-2 -110 147 -3 c132 -2 148 -1 156 15 5 10 12 74 16 143 12 256 77 470
171 567 44 45 57 53 88 53 135 0 267 -335 267 -676 0 -57 4 -85 14 -93 9 -8
60 -11 157 -9 l144 3 3 55 c2 30 -2 105 -8 167 -50 491 -277 849 -550 868 -36
2 -82 0 -103 -5z"/>
</g>
</svg>
